<svg width="100" height="101" viewBox="0 0 100 101" fill="none" xmlns="http://www.w3.org/2000/svg">
<path fill-rule="evenodd" clip-rule="evenodd" d="M37.1208 81.1063C37.851 81.4099 38.5943 81.6882 39.3497 81.9403C42.6626 83.0456 46.2073 83.6443 49.8919 83.6443C68.2753 83.6443 83.178 68.7416 83.178 50.3582C83.178 31.9747 68.2753 17.072 49.8919 17.072C31.5085 17.072 16.6058 31.9747 16.6058 50.3582C16.6058 60.6289 21.2575 69.8132 28.5691 75.9191C29.457 76.6606 30.3842 77.3567 31.347 78.0038L30.8185 84.0451L37.1208 81.1063ZM8.29045 50.3582C8.29045 62.9296 13.872 74.195 22.6666 81.814L22.5348 83.3204L21.2795 97.6681L34.3327 91.5813L37.5308 90.09C41.4434 91.3062 45.5974 91.9596 49.8919 91.9596C72.8677 91.9596 91.4933 73.334 91.4933 50.3582C91.4933 27.3823 72.8677 8.75671 49.8919 8.75671C26.916 8.75671 8.29045 27.3823 8.29045 50.3582ZM30.5146 60.323L41.6148 40.7865C41.8675 40.3418 42.4579 40.2284 42.8573 40.5479L54.5695 49.9177C54.8732 50.1607 55.3047 50.1607 55.6084 49.9177L68.5147 39.5927C68.8875 39.2944 69.3869 39.7571 69.118 40.1516L55.5946 59.9859C55.3218 60.3859 54.7662 60.4692 54.3881 60.1667L42.6656 50.7888C42.3398 50.5281 41.8713 50.5493 41.5703 50.8382L31.164 60.8283C30.8181 61.1604 30.2777 60.7399 30.5146 60.323Z" fill="black"/>
</svg>
