<svg width="100" height="101" viewBox="0 0 100 101" fill="none" xmlns="http://www.w3.org/2000/svg">
<path fill-rule="evenodd" clip-rule="evenodd" d="M24.9459 58.9279C29.5384 58.9279 33.2613 55.205 33.2613 50.6126C33.2613 46.0201 29.5384 42.2972 24.9459 42.2972C20.3535 42.2972 16.6306 46.0201 16.6306 50.6126C16.6306 55.205 20.3535 58.9279 24.9459 58.9279ZM58.2072 50.6126C58.2072 55.205 54.4843 58.9279 49.8919 58.9279C45.2995 58.9279 41.5766 55.205 41.5766 50.6126C41.5766 46.0202 45.2995 42.2973 49.8919 42.2973C54.4843 42.2973 58.2072 46.0202 58.2072 50.6126ZM83.1532 50.6126C83.1532 55.205 79.4303 58.9279 74.8378 58.9279C70.2454 58.9279 66.5225 55.205 66.5225 50.6126C66.5225 46.0202 70.2454 42.2973 74.8378 42.2973C79.4303 42.2973 83.1532 46.0202 83.1532 50.6126Z" fill="black"/>
</svg>
