<svg width="93" height="92" viewBox="0 0 93 92" fill="none" xmlns="http://www.w3.org/2000/svg">
<path fill-rule="evenodd" clip-rule="evenodd" d="M46.2973 8.47297C25.6314 8.47297 8.87836 25.226 8.87836 45.8919C8.87836 55.8128 12.7393 64.8319 19.0405 71.5288C21.8049 66.1793 27.3876 62.5225 33.8243 62.5225H58.7702C65.207 62.5225 70.7897 66.1793 73.5541 71.5288C79.8553 64.8319 83.7162 55.8128 83.7162 45.8919C83.7162 25.226 66.9632 8.47297 46.2973 8.47297ZM66.8471 77.168C65.957 73.5341 62.6785 70.8378 58.7702 70.8378H33.8243C29.9161 70.8378 26.6376 73.5341 25.7474 77.168C31.6456 81.0512 38.7076 83.3108 46.2973 83.3108C53.887 83.3108 60.949 81.0512 66.8471 77.168ZM0.563049 45.8919C0.563049 20.6336 21.039 0.157654 46.2973 0.157654C71.5556 0.157654 92.0315 20.6336 92.0315 45.8919C92.0315 71.1502 71.5556 91.6261 46.2973 91.6261C21.039 91.6261 0.563049 71.1502 0.563049 45.8919ZM46.2973 25.1036C39.4086 25.1036 33.8243 30.6879 33.8243 37.5766C33.8243 44.4652 39.4086 50.0495 46.2973 50.0495C53.1859 50.0495 58.7703 44.4652 58.7703 37.5766C58.7703 30.6879 53.1859 25.1036 46.2973 25.1036ZM25.509 37.5766C25.509 26.0955 34.8162 16.7883 46.2973 16.7883C57.7783 16.7883 67.0856 26.0955 67.0856 37.5766C67.0856 49.0576 57.7783 58.3649 46.2973 58.3649C34.8162 58.3649 25.509 49.0576 25.509 37.5766Z" fill="black"/>
</svg>
